<svg viewBox="0 0 512 512" xmlns="http://www.w3.org/2000/svg"><path d="M419.54 242.6a51.9 51.9 0 0 1 11.15 32.32v52.17a5.59 5.59 0 1 0 11.17 0v-52.17a62.94 62.94 0 0 0-13.53-39.21 5.58 5.58 0 1 0-8.79 6.89ZM77.27 330.35a5.58 5.58 0 0 0 5.59-5.58v-49.85a52.3 52.3 0 0 1 13.22-34.8 5.59 5.59 0 1 0-8.35-7.42 63.45 63.45 0 0 0-16 42.22v49.85a5.58 5.58 0 0 0 5.54 5.58ZM102.87 218.43a35.43 35.43 0 0 0 11.57 11.44 5.58 5.58 0 1 0 5.81-9.54 24.29 24.29 0 0 1-7.9-7.82 66.47 66.47 0 0 1-8.91-22.14 21.48 21.48 0 0 1 4.85-18.37 127.78 127.78 0 0 1 10.07-10.31c0 1.46-.08 2.92-.08 4.38a137.11 137.11 0 0 0 23 76.2 5.59 5.59 0 0 0 9.31-6.19 126.55 126.55 0 1 1 210.44.63 5.59 5.59 0 0 0 9.27 6.25 137.09 137.09 0 0 0 23.44-76.89c0-1.46 0-2.92-.08-4.38A127.78 127.78 0 0 1 403.71 172a21.48 21.48 0 0 1 4.85 18.39 66.47 66.47 0 0 1-8.91 22.14 23.81 23.81 0 0 1-4.92 5.67 5.59 5.59 0 0 0 7.2 8.55 35.48 35.48 0 0 0 7.2-8.3 77.74 77.74 0 0 0 10.39-25.85 32.61 32.61 0 0 0-7.34-27.89 166.5 166.5 0 0 0-20-19.06C382.31 79.34 325 28.33 256 28.33s-126.31 51-136.2 117.3a165.71 165.71 0 0 0-20 19.06 32.61 32.61 0 0 0-7.34 27.89 77.74 77.74 0 0 0 10.41 25.85Z" fill="#37996b" class="fill-000000"></path><path d="M248.89 93.44a5.59 5.59 0 1 0 0-11.17h-16.16a76.44 76.44 0 0 0-17.13 2l-.54.13A76.7 76.7 0 0 0 157 148.29a189.35 189.35 0 0 0-1.83 24.77c0 .5 0 1 .05 1.49v.17a62 62 0 0 0 61.6 57.08h78.4a62 62 0 0 0 61.6-57.08v-.17c0-.5.05-1 .05-1.49a189.35 189.35 0 0 0-1.87-24.77 76.7 76.7 0 0 0-58.09-63.94 5 5 0 0 0-.53-.12 76 76 0 0 0-17.14-2h-1.65a5.59 5.59 0 1 0 0 11.17h1.65q3 0 5.84.27L275 106.79a12.74 12.74 0 0 1-10.12 4.95h-17.71a12.74 12.74 0 0 1-10.12-4.95l-10.16-13.08q2.88-.27 5.84-.27Zm-20.66 20.2a23.82 23.82 0 0 0 18.94 9.28h17.66a23.82 23.82 0 0 0 18.94-9.28L297.44 96A65.47 65.47 0 0 1 344 149.8a180.89 180.89 0 0 1 1.73 23.3V173.88a50.79 50.79 0 0 1-50.46 46.75H216.8a50.82 50.82 0 0 1-50.47-46.88v-.65a180.89 180.89 0 0 1 1.67-23.3A65.47 65.47 0 0 1 214.56 96ZM154.88 273.21a5.59 5.59 0 0 0 5.59-5.59 10.06 10.06 0 0 1 10.05-10.05h171a10.06 10.06 0 0 1 10 10.05 5.59 5.59 0 1 0 11.17 0 21.24 21.24 0 0 0-21.22-21.22h-171a21.24 21.24 0 0 0-21.22 21.22 5.58 5.58 0 0 0 5.63 5.59Z" fill="#37996b" class="fill-000000"></path><path d="M196.77 139.75a5.59 5.59 0 0 0 7.67-1.87c.57-.93 1.17-1.88 1.79-2.84a5.58 5.58 0 1 0-9.36-6.09c-.69 1.05-1.34 2.1-2 3.12a5.59 5.59 0 0 0 1.9 7.68ZM194.33 193.87a5.59 5.59 0 1 0 6.83-8.84c-.43-.35-10.47-8.7-5.3-28a5.59 5.59 0 1 0-10.79-2.89c-7.18 26.86 8.58 39.22 9.26 39.73ZM70.72 483.67a5.58 5.58 0 0 0 5.58-5.59v-48a171.21 171.21 0 0 1 15.52-71.86c20-43 49.18-58.41 64.79-63.78a58.77 58.77 0 0 1 9.93-2.59h36.35l11.05 18a27.39 27.39 0 0 0 23.2 13 5.59 5.59 0 1 0 0-11.17 16.17 16.17 0 0 1-13.69-7.68L216 291.89h80L288.55 304a16.17 16.17 0 0 1-13.69 7.65 5.59 5.59 0 1 0 0 11.17 27.39 27.39 0 0 0 23.2-13l11.05-18h36.36c4.33.61 47.6 8.14 74.71 66.37a171.21 171.21 0 0 1 15.52 71.86v48a5.59 5.59 0 1 0 11.17 0v-48a182.52 182.52 0 0 0-16.56-76.58c-30.73-66-81.69-72.54-83.84-72.79a4.49 4.49 0 0 0-.64 0H166.17a4.49 4.49 0 0 0-.64 0 64.77 64.77 0 0 0-12.53 3.24c-17.28 5.94-49.52 22.88-71.29 69.62a182.52 182.52 0 0 0-16.56 76.58v48a5.59 5.59 0 0 0 5.57 5.55Z" fill="#37996b" class="fill-000000"></path><path d="M365.64 481.36a5.58 5.58 0 0 0 5.58-5.58V420a52.56 52.56 0 0 0-52.49-52.5H194.82a52.56 52.56 0 0 0-52.5 52.5v55.8a5.59 5.59 0 0 0 11.18 0V420a41.37 41.37 0 0 1 41.32-41.33h123.91A41.37 41.37 0 0 1 360.05 420v55.8a5.58 5.58 0 0 0 5.59 5.56Z" fill="#37996b" class="fill-000000"></path><path d="M210.11 452a22.09 22.09 0 0 1-22.06-22 5.59 5.59 0 0 0-11.17 0 33.17 33.17 0 1 0 24.66-32.12 5.59 5.59 0 0 0 2.88 10.8 22.07 22.07 0 1 1 5.69 43.32ZM266.65 427.12v5.7a5.59 5.59 0 1 0 11.18 0v-5.7a5.59 5.59 0 0 0-11.18 0ZM295.66 427.12v5.7a5.59 5.59 0 1 0 11.17 0v-5.7a5.59 5.59 0 0 0-11.17 0ZM324.66 427.12v5.7a5.59 5.59 0 1 0 11.17 0v-5.7a5.59 5.59 0 0 0-11.17 0Z" fill="#37996b" class="fill-000000"></path></svg>