<svg viewBox="0 0 512 512" xml:space="preserve" xmlns="http://www.w3.org/2000/svg" enable-background="new 0 0 512 512"><path d="M31 167.2c.4-.3.7-.6 1.1-1m22.8-18.3c12-8.9 24.5-17 37.6-24.3 41.1-22.9 85-37.1 131.8-42.2m36-2.2H280c1.1.2 2.3.5 3.4.7 10.3 1.1 20.7 1.7 30.9 3.2 36.2 5.3 70.3 15.8 102.1 31.4m38.9 22.4c8.8 5.8 17.3 12.1 25.7 18.8M228.3 399.5c.1-2.4.4-4.9 1.1-7.4 4-15.1 18.5-25.6 33.4-24.4 16.4 1.4 29.1 13.7 30.4 29.3 1.4 16.3-8.9 30.8-24.6 34.8-1 .3-2 .6-2.9.9h-10.2c-2.7-1-5.4-1.7-8-2.9l-1.8-.9M110.6 240.9c17-15.5 36-28 56.8-37.7 30.3-14 62.7-21.1 107.3-21 10.6.1 21.3 1.2 32.1 3.3M340.1 194.6c.9.3 1.7.7 2.6 1M373.5 210.2c15 8.5 29.5 18.9 43.3 31.3M176 318.8c11.1-9.7 23-17.3 35.7-22.7M245.2 286.8c6.1-.9 12.3-1.3 18.7-1.4 33.6.6 63.1 12 88.2 34.6" fill="none" stroke="#37996b" stroke-width="20" stroke-linecap="round" stroke-linejoin="round" stroke-miterlimit="10" class="stroke-000000"></path></svg>